<svg width="25" height="21" viewBox="0 0 25 21" fill="none" xmlns="http://www.w3.org/2000/svg">
<g clip-path="url(#clip0_32_168)">
<path d="M12.5 20.4819C14.2188 20.4819 15.625 19.5366 15.625 18.3812H9.375C9.375 19.5366 10.7812 20.4819 12.5 20.4819ZM21.875 14.1798V8.92802C21.875 5.70343 19.3281 3.00402 14.8438 2.28977V1.57553C14.8438 0.703738 13.7969 0 12.5 0C11.2031 0 10.1562 0.703738 10.1562 1.57553V2.28977C5.6875 3.00402 3.125 5.69293 3.125 8.92802V14.1798L0 16.2805V17.3309H25V16.2805L21.875 14.1798ZM18.75 15.2302H6.25V8.92802C6.25 6.32314 8.60938 4.20142 12.5 4.20142C16.3906 4.20142 18.75 6.32314 18.75 8.92802V15.2302Z" fill="black"/>
</g>
<defs>
<clipPath id="clip0_32_168">
<rect width="25" height="20.4819" fill="white"/>
</clipPath>
</defs>
</svg>
